<svg width="700" height="157" viewBox="0 0 700 157" fill="none" xmlns="http://www.w3.org/2000/svg">
<path d="M63.7966 32.3814C63.7966 39 66.4068 46.8305 70.322 52.0508C72.2797 54.661 73.678 56.9915 73.3983 57.2712C72.5593 58.0169 68.3644 56.0593 64.6356 53.0763L61 50.1864V52.4237C61 55.4068 65.1017 65.7542 67.9915 70.0424C69.2034 72 72.1864 74.8898 74.6102 76.5678C79.0847 79.6441 78.9915 81.1356 74.1441 81.1356H71.9068L74.1441 83.5593C76.7542 86.3559 85.2373 90.8305 89.7119 91.8559C93.0678 92.5085 93.7203 94.6525 90.7373 95.3983C89.6186 95.678 89.0593 96.3305 89.339 96.8898C90.0847 98.1017 96.0508 99.7797 99.5932 99.7797C101.458 99.7797 102.11 100.153 101.737 101.085C101.364 102.017 102.483 102.949 105.373 104.068C111.992 106.585 113.203 110.22 107.983 111.898C105.466 112.737 104.814 113.39 105.28 114.602C105.653 115.441 106.119 116.839 106.398 117.678C106.678 118.703 107.703 119.169 109.288 119.076C111.246 118.89 111.712 119.263 111.525 120.568C111.153 122.898 113.949 125.881 116.466 125.881C119.356 125.881 121.686 123.085 120.941 120.381C120.381 118.331 120.568 118.144 123.085 118.703C125.508 119.169 125.975 118.89 127.093 116.373C128.492 113.297 127.559 111.898 124.203 111.898C121.78 111.898 121.407 110.407 122.992 107.331C123.924 105.466 125.508 104.161 127.466 103.695C129.237 103.229 130.449 102.297 130.356 101.458C130.263 100.339 131.568 99.8729 135.576 99.4068C138.466 99.0339 141.729 98.1949 142.661 97.4492C144.339 96.1441 144.339 96.0508 142.381 95.4915C138.746 94.4661 140.051 92.8814 146.483 90.4576C152.822 88.1271 159.814 83.7458 159.814 82.161C159.814 81.6949 158.695 81.1356 157.297 80.9492C153.568 80.4831 153.941 79.178 158.788 75.3559C161.305 73.4915 164.381 70.1356 165.593 67.8051C168.297 63.0508 171 55.5 171 52.8898C171 51.3051 170.814 51.3051 168.297 53.3559C165.22 56.0593 160 58.2966 159.161 57.4576C158.788 57.178 159.441 55.9661 160.559 54.7542C165.873 49.0678 170.347 33.7797 168.297 28.0932C168.297 27.9068 166.805 29.8644 165.22 32.2881C161.678 37.5085 152.915 43.9407 140.983 50C133.059 54.0085 129.983 56.7119 129.983 59.8814C129.983 61 130.915 61.5593 133.432 61.7458C136.229 61.9322 136.975 62.4915 137.441 64.3559C138.839 70.2288 133.339 82.6271 128.025 85.3305C124.39 87.2881 124.017 87.1017 122.339 83.6525C120.008 78.7119 119.449 74.7034 120.847 73.0254C121.873 71.6271 121.873 71.5339 120.195 72.2797C119.169 72.6525 117.025 73.2119 115.347 73.4915C113.763 73.678 111.619 74.6102 110.686 75.4492C109.754 76.2881 108.263 77.3136 107.331 77.6864C104.534 78.7119 105.746 81.6949 108.822 81.322C112.085 80.9492 113.203 83.4661 110.78 85.3305C109.754 86.0763 108.356 86.6356 107.61 86.6356C105.186 86.7288 99.3136 80.5763 97.2627 75.9153C96.2373 73.3983 95.0254 71.161 94.6525 70.8814C94.2797 70.6017 93.6271 69.2966 93.3475 67.9915C92.4153 64.2627 95.678 60.6271 99.7797 60.6271C101.737 60.6271 102.949 60.161 102.949 59.4153C102.949 56.7119 99.5932 54.0085 91.4831 50.0932C80.6695 44.9661 72.1864 38.6271 67.8983 32.661C66.0339 30.1441 64.3559 28 64.1695 28C63.9831 28 63.7966 29.9576 63.7966 32.3814Z" fill="black" stroke="black"/>
<path d="M214.415 58.6985C214.415 56.4246 214.103 54.7527 213.479 53.6826C212.855 52.5679 211.606 52.0106 209.734 52.0106H209.065V50.0042H227.456C232.049 50.0042 236.195 50.9183 239.896 52.7463C243.641 54.5297 245.514 58.0966 245.514 63.4469C245.514 66.9246 244.533 69.6221 242.571 71.5393C240.654 73.4565 238.492 74.7272 236.084 75.3514C233.676 75.9756 231.469 76.2877 229.463 76.2877H223.109V94.1444H214.415V58.6985ZM227.122 73.6125C229.753 73.6125 231.915 72.81 233.609 71.2049C235.304 69.5998 236.151 66.9023 236.151 63.1125C236.151 59.3673 235.304 56.6921 233.609 55.087C231.96 53.482 229.909 52.6794 227.456 52.6794C226.163 52.6794 225.16 52.7686 224.447 52.9469L223.109 53.1476V73.6125H227.122ZM265.071 94.8132C261.994 94.8132 259.297 94.0998 256.978 92.673C254.66 91.2463 252.854 89.3068 251.561 86.8546C250.313 84.3577 249.689 81.5488 249.689 78.4278C249.689 74.9501 250.313 71.9851 251.561 69.5329C252.854 67.0807 254.615 65.2304 256.845 63.982C259.074 62.689 261.593 62.0425 264.402 62.0425C267.166 62.0425 269.663 62.5998 271.892 63.7144C274.122 64.8291 275.883 66.4119 277.176 68.4628C278.469 70.4692 279.115 72.7877 279.115 75.4183C279.115 76.2654 279.071 77.224 278.982 78.2941L278.848 79.6316H258.717C258.717 83.8673 259.364 86.966 260.657 88.9278C261.95 90.845 263.755 91.8036 266.074 91.8036C268.214 91.8036 269.997 91.3355 271.424 90.3991C272.896 89.4183 274.3 88.0361 275.638 86.2527L277.711 87.7909C276.418 89.7972 274.79 91.4692 272.829 92.8068C270.911 94.1444 268.325 94.8132 265.071 94.8132ZM270.087 76.6221C270.087 72.431 269.596 69.466 268.615 67.7272C267.634 65.9437 266.23 65.052 264.402 65.052C262.708 65.052 261.325 65.966 260.255 67.7941C259.23 69.5775 258.717 72.5202 258.717 76.6221H270.087ZM299.099 94.8132C294.596 94.8132 291.118 93.2972 288.666 90.2654C286.258 87.189 285.054 83.2431 285.054 78.4278C285.054 73.6125 286.28 69.689 288.732 66.6571C291.229 63.5807 294.796 62.0425 299.433 62.0425C301.038 62.0425 302.755 62.3769 304.583 63.0456C305.252 63.3577 305.876 63.6921 306.455 64.0488V58.6985C306.455 56.4246 306.143 54.7527 305.519 53.6826C304.895 52.5679 303.646 52.0106 301.774 52.0106H301.105V50.0042H309.131C310.736 50.0042 311.962 50.2718 312.809 50.8068C313.656 51.3418 314.258 52.2335 314.615 53.4819C314.971 54.6858 315.15 56.4246 315.15 58.6985V94.1444H309.465L307.124 91.1348H306.79C306.389 91.759 305.764 92.3832 304.917 93.0074C303.401 94.2113 301.462 94.8132 299.099 94.8132ZM300.436 91.8036C302.086 91.8036 303.58 91.0902 304.917 89.6635C305.408 89.173 305.92 88.4374 306.455 87.4565V67.0584C306.01 66.7017 305.475 66.3673 304.85 66.0552C303.424 65.3864 302.064 65.052 300.771 65.052C296.312 65.052 294.083 69.5106 294.083 78.4278C294.083 82.5743 294.573 85.8514 295.554 88.259C296.58 90.6221 298.207 91.8036 300.436 91.8036ZM345.972 63.38C346.775 63.9597 347.354 64.6062 347.711 65.3195C348.068 65.9883 348.246 66.345 348.246 66.3896L344.835 68.9979C344.523 68.5966 344.122 68.173 343.631 67.7272C342.65 66.8355 341.513 66.3896 340.22 66.3896C337.634 66.3896 335.65 67.0807 334.268 68.4628L334.402 69.466C334.491 70.2686 334.536 71.0042 334.536 71.673V94.1444H325.841V71.4055C325.841 69.1316 325.529 67.4597 324.905 66.3896C324.325 65.2749 323.099 64.7176 321.227 64.7176H320.558V62.7112H327.179C328.695 62.7112 329.876 62.9119 330.724 63.3132C331.615 63.6698 332.306 64.2941 332.797 65.1858C335.204 63.0902 338.013 62.0425 341.224 62.0425C343.141 62.0425 344.724 62.4883 345.972 63.38ZM367.653 94.8132C364.398 94.8132 361.544 94.0998 359.092 92.673C356.684 91.2017 354.834 89.2399 353.541 86.7877C352.248 84.2909 351.602 81.5042 351.602 78.4278C351.602 75.3514 352.248 72.587 353.541 70.1348C354.834 67.638 356.684 65.6762 359.092 64.2495C361.544 62.7781 364.398 62.0425 367.653 62.0425C370.907 62.0425 373.739 62.7781 376.146 64.2495C378.598 65.6762 380.471 67.638 381.764 70.1348C383.057 72.587 383.704 75.3514 383.704 78.4278C383.704 81.5042 383.057 84.2909 381.764 86.7877C380.471 89.2399 378.598 91.2017 376.146 92.673C373.739 94.0998 370.907 94.8132 367.653 94.8132ZM367.653 91.8036C369.927 91.8036 371.665 90.5775 372.869 88.1253C374.073 85.673 374.675 82.4405 374.675 78.4278C374.675 74.4151 374.073 71.1826 372.869 68.7304C371.665 66.2781 369.927 65.052 367.653 65.052C365.379 65.052 363.64 66.2781 362.436 68.7304C361.232 71.1826 360.63 74.4151 360.63 78.4278C360.63 82.4405 361.232 85.673 362.436 88.1253C363.64 90.5775 365.379 91.8036 367.653 91.8036ZM447.49 94.4119C444.681 94.4119 442.139 93.8323 439.866 92.673C437.592 91.4692 435.741 89.1507 434.315 85.7176L432.776 81.9724H414.987L409.503 94.1444H406.025L425.754 50.0042H428.764L443.745 85.7176C445.439 89.8641 447.757 92.0934 450.7 92.4055V94.0775C449.897 94.3004 448.827 94.4119 447.49 94.4119ZM416.391 78.9628H431.506L424.149 61.5074L416.391 78.9628ZM452.738 92.0711L470.327 65.7208H462.435C459.626 65.7208 457.642 66.2335 456.483 67.259C455.324 68.2399 454.744 69.845 454.744 72.0743H452.738V68.0616C452.738 64.4947 454.632 62.7112 458.422 62.7112H482.231L463.238 91.1348H480.827V94.1444H452.738V92.0711ZM501.784 94.8132C498.707 94.8132 496.01 94.0998 493.691 92.673C491.373 91.2463 489.567 89.3068 488.274 86.8546C487.026 84.3577 486.401 81.5488 486.401 78.4278C486.401 74.9501 487.026 71.9851 488.274 69.5329C489.567 67.0807 491.328 65.2304 493.558 63.982C495.787 62.689 498.306 62.0425 501.115 62.0425C503.879 62.0425 506.376 62.5998 508.605 63.7144C510.835 64.8291 512.596 66.4119 513.889 68.4628C515.182 70.4692 515.828 72.7877 515.828 75.4183C515.828 76.2654 515.784 77.224 515.694 78.2941L515.561 79.6316H495.43C495.43 83.8673 496.077 86.966 497.37 88.9278C498.663 90.845 500.468 91.8036 502.787 91.8036C504.927 91.8036 506.71 91.3355 508.137 90.3991C509.608 89.4183 511.013 88.0361 512.35 86.2527L514.424 87.7909C513.131 89.7972 511.503 91.4692 509.542 92.8068C507.624 94.1444 505.038 94.8132 501.784 94.8132ZM506.8 76.6221C506.8 72.431 506.309 69.466 505.328 67.7272C504.347 65.9437 502.943 65.052 501.115 65.052C499.421 65.052 498.038 65.966 496.968 67.7941C495.943 69.5775 495.43 72.5202 495.43 76.6221H506.8ZM544.772 63.38C545.574 63.9597 546.154 64.6062 546.511 65.3195C546.868 65.9883 547.046 66.345 547.046 66.3896L543.635 68.9979C543.323 68.5966 542.922 68.173 542.431 67.7272C541.45 66.8355 540.313 66.3896 539.02 66.3896C536.434 66.3896 534.45 67.0807 533.068 68.4628L533.202 69.466C533.291 70.2686 533.336 71.0042 533.336 71.673V94.1444H524.641V71.4055C524.641 69.1316 524.329 67.4597 523.705 66.3896C523.125 65.2749 521.899 64.7176 520.027 64.7176H519.358V62.7112H525.979C527.495 62.7112 528.676 62.9119 529.524 63.3132C530.415 63.6698 531.106 64.2941 531.597 65.1858C534.004 63.0902 536.813 62.0425 540.024 62.0425C541.941 62.0425 543.524 62.4883 544.772 63.38ZM565.851 94.8132C562.774 94.8132 560.077 94.0998 557.758 92.673C555.44 91.2463 553.634 89.3068 552.341 86.8546C551.093 84.3577 550.469 81.5488 550.469 78.4278C550.469 74.9501 551.093 71.9851 552.341 69.5329C553.634 67.0807 555.395 65.2304 557.625 63.982C559.854 62.689 562.373 62.0425 565.182 62.0425C567.946 62.0425 570.443 62.5998 572.672 63.7144C574.902 64.8291 576.663 66.4119 577.956 68.4628C579.249 70.4692 579.895 72.7877 579.895 75.4183C579.895 76.2654 579.851 77.224 579.762 78.2941L579.628 79.6316H559.497C559.497 83.8673 560.144 86.966 561.437 88.9278C562.73 90.845 564.535 91.8036 566.854 91.8036C568.994 91.8036 570.777 91.3355 572.204 90.3991C573.676 89.4183 575.08 88.0361 576.418 86.2527L578.491 87.7909C577.198 89.7972 575.57 91.4692 573.609 92.8068C571.691 94.1444 569.106 94.8132 565.851 94.8132ZM570.867 76.6221C570.867 72.431 570.376 69.466 569.395 67.7272C568.414 65.9437 567.01 65.052 565.182 65.052C563.488 65.052 562.106 65.966 561.035 67.7941C560.01 69.5775 559.497 72.5202 559.497 76.6221H570.867ZM599.879 94.8132C595.376 94.8132 591.898 93.2972 589.446 90.2654C587.038 87.189 585.834 83.2431 585.834 78.4278C585.834 73.6125 587.06 69.689 589.512 66.6571C592.009 63.5807 595.576 62.0425 600.213 62.0425C601.818 62.0425 603.535 62.3769 605.363 63.0456C606.032 63.3577 606.656 63.6921 607.235 64.0488V58.6985C607.235 56.4246 606.923 54.7527 606.299 53.6826C605.675 52.5679 604.426 52.0106 602.554 52.0106H601.885V50.0042H609.911C611.516 50.0042 612.742 50.2718 613.589 50.8068C614.436 51.3418 615.038 52.2335 615.395 53.4819C615.751 54.6858 615.93 56.4246 615.93 58.6985V94.1444H610.245L607.904 91.1348H607.57C607.169 91.759 606.544 92.3832 605.697 93.0074C604.181 94.2113 602.242 94.8132 599.879 94.8132ZM601.216 91.8036C602.866 91.8036 604.36 91.0902 605.697 89.6635C606.188 89.173 606.7 88.4374 607.235 87.4565V67.0584C606.79 66.7017 606.255 66.3673 605.63 66.0552C604.204 65.3864 602.844 65.052 601.551 65.052C597.092 65.052 594.863 69.5106 594.863 78.4278C594.863 82.5743 595.353 85.8514 596.334 88.259C597.36 90.6221 598.987 91.8036 601.216 91.8036ZM639.73 94.8132C636.475 94.8132 633.621 94.0998 631.169 92.673C628.762 91.2017 626.911 89.2399 625.618 86.7877C624.325 84.2909 623.679 81.5042 623.679 78.4278C623.679 75.3514 624.325 72.587 625.618 70.1348C626.911 67.638 628.762 65.6762 631.169 64.2495C633.621 62.7781 636.475 62.0425 639.73 62.0425C642.984 62.0425 645.816 62.7781 648.223 64.2495C650.676 65.6762 652.548 67.638 653.841 70.1348C655.134 72.587 655.781 75.3514 655.781 78.4278C655.781 81.5042 655.134 84.2909 653.841 86.7877C652.548 89.2399 650.676 91.2017 648.223 92.673C645.816 94.0998 642.984 94.8132 639.73 94.8132ZM639.73 91.8036C642.004 91.8036 643.742 90.5775 644.946 88.1253C646.15 85.673 646.752 82.4405 646.752 78.4278C646.752 74.4151 646.15 71.1826 644.946 68.7304C643.742 66.2781 642.004 65.052 639.73 65.052C637.456 65.052 635.717 66.2781 634.513 68.7304C633.309 71.1826 632.707 74.4151 632.707 78.4278C632.707 82.4405 633.309 85.673 634.513 88.1253C635.717 90.5775 637.456 91.8036 639.73 91.8036ZM262.009 122.382L264.204 109.703L267.634 109.712C268.691 109.712 269.601 109.976 270.36 110.504C271.127 111.027 271.681 111.752 272.023 112.681C272.366 113.604 272.47 114.623 272.337 115.738L272.242 116.426C272.068 117.593 271.681 118.629 271.084 119.535C270.491 120.435 269.725 121.134 268.785 121.633C267.844 122.132 266.811 122.382 265.684 122.382H262.009ZM266.05 111.48L264.464 120.623L265.737 120.632C266.885 120.632 267.838 120.269 268.593 119.543C269.354 118.812 269.841 117.805 270.055 116.521C270.207 115.639 270.262 114.87 270.222 114.214C270.168 113.372 269.922 112.713 269.48 112.237C269.046 111.761 268.438 111.511 267.661 111.488L266.05 111.48ZM277.467 122.556C276.648 122.539 275.936 122.333 275.333 121.938C274.735 121.543 274.291 121.003 274.001 120.318C273.716 119.633 273.609 118.87 273.679 118.028L273.704 117.671C273.81 116.713 274.087 115.854 274.541 115.093C274.998 114.327 275.568 113.747 276.247 113.352C276.926 112.957 277.663 112.768 278.46 112.786C279.637 112.809 280.52 113.247 281.107 114.101C281.698 114.954 281.923 116.066 281.777 117.436L281.655 118.341H275.725C275.672 119.091 275.823 119.694 276.177 120.153C276.532 120.612 277.02 120.847 277.641 120.858C278.528 120.887 279.347 120.501 280.096 119.7L281.141 120.797C280.747 121.36 280.227 121.799 279.582 122.112C278.938 122.42 278.232 122.568 277.467 122.556ZM278.345 114.475C277.255 114.44 276.436 115.212 275.89 116.792L279.8 116.8L279.835 116.617C279.876 116.35 279.879 116.089 279.844 115.834C279.78 115.421 279.618 115.096 279.356 114.858C279.094 114.62 278.759 114.493 278.345 114.475ZM288.203 119.77C288.303 119.195 287.928 118.797 287.08 118.577C286.239 118.35 285.663 118.17 285.356 118.037C284.159 117.526 283.583 116.748 283.623 115.703C283.653 114.855 284.035 114.156 284.773 113.604C285.516 113.047 286.404 112.774 287.438 112.786C288.435 112.797 289.248 113.079 289.875 113.63C290.508 114.182 290.819 114.905 290.807 115.799L288.761 115.79C288.773 115.355 288.654 115.015 288.404 114.771C288.154 114.522 287.811 114.391 287.377 114.379C286.918 114.379 286.522 114.493 286.193 114.719C285.867 114.945 285.678 115.241 285.626 115.607C285.545 116.136 285.916 116.504 286.741 116.713C287.564 116.916 288.175 117.105 288.569 117.279C289.719 117.784 290.274 118.574 290.232 119.648C290.204 120.246 290.006 120.768 289.641 121.215C289.281 121.656 288.796 121.996 288.186 122.234C287.576 122.466 286.93 122.574 286.245 122.556C285.216 122.545 284.363 122.246 283.684 121.659C283.011 121.073 282.679 120.321 282.691 119.404L284.686 119.413C284.697 119.918 284.848 120.301 285.139 120.562C285.429 120.823 285.827 120.957 286.331 120.963C286.842 120.963 287.266 120.858 287.603 120.649C287.945 120.435 288.145 120.141 288.203 119.77ZM295.859 122.556C295.04 122.539 294.328 122.333 293.725 121.938C293.127 121.543 292.683 121.003 292.391 120.318C292.108 119.633 292.001 118.87 292.07 118.028L292.096 117.671C292.201 116.713 292.479 115.854 292.932 115.093C293.39 114.327 293.959 113.747 294.639 113.352C295.318 112.957 296.055 112.768 296.85 112.786C298.029 112.809 298.911 113.247 299.498 114.101C300.09 114.954 300.314 116.066 300.169 117.436L300.047 118.341H294.117C294.065 119.091 294.215 119.694 294.569 120.153C294.924 120.612 295.411 120.847 296.033 120.858C296.92 120.887 297.739 120.501 298.488 119.7L299.533 120.797C299.139 121.36 298.619 121.799 297.974 122.112C297.33 122.42 296.624 122.568 295.859 122.556ZM296.737 114.475C295.646 114.44 294.827 115.212 294.282 116.792L298.192 116.8L298.226 116.617C298.268 116.35 298.271 116.089 298.235 115.834C298.171 115.421 298.009 115.096 297.748 114.858C297.486 114.62 297.15 114.493 296.737 114.475ZM304.506 112.951L304.296 114.057C305.103 113.186 306.035 112.762 307.091 112.786C307.974 112.803 308.627 113.12 309.05 113.735C309.475 114.345 309.631 115.198 309.521 116.295L308.502 122.382H306.439L307.466 116.269C307.496 116.019 307.499 115.787 307.475 115.572C307.399 114.881 306.987 114.527 306.238 114.51C305.455 114.498 304.767 114.884 304.174 115.668L302.999 122.382H300.936L302.563 112.96L304.506 112.951ZM314.389 119.674L317.367 112.96H319.571L314.93 122.382H313.136L311.41 112.96H313.484L314.389 119.674ZM319.693 117.636C319.791 116.713 320.062 115.874 320.503 115.12C320.949 114.365 321.521 113.781 322.218 113.369C322.915 112.957 323.686 112.762 324.534 112.786C325.341 112.797 326.038 113.012 326.625 113.43C327.21 113.848 327.637 114.42 327.904 115.146C328.178 115.871 328.273 116.678 328.191 117.567C328.099 118.565 327.825 119.448 327.374 120.214C326.926 120.98 326.351 121.569 325.648 121.982C324.953 122.388 324.177 122.58 323.324 122.556C322.523 122.545 321.829 122.333 321.243 121.921C320.662 121.503 320.235 120.934 319.962 120.214C319.69 119.488 319.59 118.69 319.666 117.819L319.693 117.636ZM321.722 118.829C321.75 119.439 321.91 119.929 322.2 120.301C322.496 120.667 322.906 120.858 323.428 120.876C324.137 120.893 324.728 120.62 325.205 120.057C325.687 119.494 325.989 118.725 326.11 117.749L326.162 116.896C326.162 116.153 326.015 115.569 325.718 115.146C325.422 114.722 324.993 114.498 324.43 114.475C323.547 114.452 322.851 114.884 322.34 115.773C322.032 116.313 321.838 116.934 321.756 117.636C321.71 118.124 321.698 118.521 321.722 118.829ZM331.336 122.382H329.272L331.596 109.006H333.66L331.336 122.382ZM337.361 119.674L340.339 112.96H342.543L337.902 122.382H336.108L334.383 112.96H336.456L337.361 119.674ZM346.453 122.556C345.635 122.539 344.923 122.333 344.319 121.938C343.722 121.543 343.277 121.003 342.986 120.318C342.702 119.633 342.595 118.87 342.665 118.028L342.69 117.671C342.796 116.713 343.074 115.854 343.527 115.093C343.985 114.327 344.554 113.747 345.233 113.352C345.913 112.957 346.65 112.768 347.445 112.786C348.623 112.809 349.506 113.247 350.093 114.101C350.685 114.954 350.909 116.066 350.763 117.436L350.642 118.341H344.712C344.658 119.091 344.81 119.694 345.163 120.153C345.519 120.612 346.006 120.847 346.627 120.858C347.515 120.887 348.334 120.501 349.083 119.7L350.127 120.797C349.734 121.36 349.213 121.799 348.568 122.112C347.925 122.42 347.219 122.568 346.453 122.556ZM347.332 114.475C346.241 114.44 345.422 115.212 344.877 116.792L348.787 116.8L348.821 116.617C348.863 116.35 348.866 116.089 348.83 115.834C348.766 115.421 348.604 115.096 348.342 114.858C348.081 114.62 347.745 114.493 347.332 114.475ZM352.009 117.662C352.125 116.693 352.386 115.822 352.792 115.05C353.199 114.278 353.7 113.703 354.299 113.326C354.897 112.942 355.561 112.76 356.294 112.777C357.251 112.8 358 113.157 358.539 113.848L359.446 109.006H361.518L359.193 122.382H357.347L357.486 121.407C356.754 122.202 355.895 122.588 354.908 122.565C354.032 122.553 353.329 122.217 352.801 121.555C352.278 120.887 351.997 120.002 351.957 118.899C351.939 118.539 351.948 118.188 351.982 117.845L352.009 117.662ZM354.011 118.472C353.971 119.192 354.081 119.764 354.342 120.188C354.61 120.612 355.004 120.829 355.527 120.841C356.322 120.864 357.01 120.478 357.591 119.683L358.296 115.633C358.024 114.908 357.494 114.533 356.711 114.51C355.922 114.487 355.286 114.835 354.804 115.555C354.321 116.275 354.058 117.247 354.011 118.472ZM361.91 117.636C362.008 116.713 362.279 115.874 362.72 115.12C363.167 114.365 363.738 113.781 364.435 113.369C365.132 112.957 365.903 112.762 366.752 112.786C367.559 112.797 368.255 113.012 368.842 113.43C369.427 113.848 369.855 114.42 370.121 115.146C370.395 115.871 370.49 116.678 370.41 117.567C370.316 118.565 370.044 119.448 369.591 120.214C369.143 120.98 368.568 121.569 367.867 121.982C367.17 122.388 366.394 122.58 365.541 122.556C364.74 122.545 364.046 122.333 363.46 121.921C362.879 121.503 362.452 120.934 362.18 120.214C361.907 119.488 361.809 118.69 361.883 117.819L361.91 117.636ZM363.939 118.829C363.968 119.439 364.127 119.929 364.417 120.301C364.714 120.667 365.123 120.858 365.646 120.876C366.354 120.893 366.947 120.62 367.422 120.057C367.904 119.494 368.206 118.725 368.327 117.749L368.379 116.896C368.379 116.153 368.232 115.569 367.937 115.146C367.639 114.722 367.21 114.498 366.646 114.475C365.765 114.452 365.068 114.884 364.557 115.773C364.249 116.313 364.055 116.934 363.974 117.636C363.927 118.124 363.916 118.521 363.939 118.829ZM377.524 114.893C377.256 114.835 376.986 114.806 376.714 114.806C375.807 114.783 375.088 115.157 374.555 115.929L373.422 122.382H371.358L372.987 112.96L374.945 112.951L374.737 114.022C375.381 113.169 376.124 112.751 376.967 112.768C377.158 112.768 377.421 112.812 377.759 112.899L377.524 114.893ZM390.16 117.009H385.214L384.282 122.382H382.13L384.325 109.703H392.162L391.848 111.48H386.171L385.518 115.25H390.473L390.16 117.009ZM397.466 114.893C397.198 114.835 396.928 114.806 396.656 114.806C395.749 114.783 395.03 115.157 394.496 115.929L393.364 122.382H391.3L392.928 112.96L394.887 112.951L394.679 114.022C395.323 113.169 396.066 112.751 396.908 112.768C397.1 112.768 397.363 112.812 397.701 112.899L397.466 114.893ZM397.649 117.636C397.747 116.713 398.017 115.874 398.459 115.12C398.904 114.365 399.477 113.781 400.174 113.369C400.871 112.957 401.642 112.762 402.491 112.786C403.298 112.797 403.993 113.012 404.58 113.43C405.166 113.848 405.592 114.42 405.86 115.146C406.133 115.871 406.228 116.678 406.148 117.567C406.055 118.565 405.781 119.448 405.329 120.214C404.882 120.98 404.307 121.569 403.605 121.982C402.908 122.388 402.132 122.58 401.279 122.556C400.478 122.545 399.784 122.333 399.199 121.921C398.618 121.503 398.191 120.934 397.918 120.214C397.646 119.488 397.546 118.69 397.622 117.819L397.649 117.636ZM399.677 118.829C399.707 119.439 399.866 119.929 400.156 120.301C400.452 120.667 400.862 120.858 401.383 120.876C402.092 120.893 402.684 120.62 403.161 120.057C403.642 119.494 403.944 118.725 404.066 117.749L404.118 116.896C404.118 116.153 403.971 115.569 403.674 115.146C403.378 114.722 402.948 114.498 402.385 114.475C401.504 114.452 400.807 114.884 400.296 115.773C399.988 116.313 399.793 116.934 399.711 117.636C399.665 118.124 399.653 118.521 399.677 118.829ZM410.641 112.951L410.431 114.057C411.238 113.186 412.17 112.762 413.227 112.786C414.11 112.803 414.762 113.12 415.187 113.735C415.611 114.345 415.767 115.198 415.657 116.295L414.637 122.382H412.575L413.601 116.269C413.631 116.019 413.634 115.787 413.61 115.572C413.535 114.881 413.123 114.527 412.374 114.51C411.591 114.498 410.903 114.884 410.31 115.668L409.134 122.382H407.071L408.699 112.96L410.641 112.951ZM421.44 110.67L421.038 112.96H422.649L422.379 114.527H420.76L419.872 119.805C419.854 119.95 419.851 120.08 419.863 120.196C419.897 120.574 420.13 120.771 420.56 120.789C420.774 120.789 421.018 120.763 421.291 120.71L421.151 122.365C420.722 122.487 420.289 122.548 419.854 122.548C419.135 122.536 418.595 122.292 418.234 121.816C417.88 121.334 417.741 120.699 417.816 119.909L418.696 114.527H417.189L417.469 112.96H418.967L419.366 110.67H421.44ZM427.448 117.845H422.997L423.302 116.138H427.753L427.448 117.845ZM432.699 122.556C431.88 122.539 431.168 122.333 430.565 121.938C429.967 121.543 429.523 121.003 429.233 120.318C428.948 119.633 428.841 118.87 428.911 118.028L428.938 117.671C429.042 116.713 429.32 115.854 429.773 115.093C430.232 114.327 430.8 113.747 431.479 113.352C432.158 112.957 432.897 112.768 433.692 112.786C434.87 112.809 435.752 113.247 436.339 114.101C436.93 114.954 437.155 116.066 437.009 117.436L436.887 118.341H430.957C430.905 119.091 431.055 119.694 431.411 120.153C431.764 120.612 432.252 120.847 432.873 120.858C433.762 120.887 434.579 120.501 435.328 119.7L436.373 120.797C435.979 121.36 435.459 121.799 434.815 122.112C434.17 122.42 433.465 122.568 432.699 122.556ZM433.579 114.475C432.487 114.44 431.668 115.212 431.122 116.792L435.032 116.8L435.067 116.617C435.108 116.35 435.111 116.089 435.076 115.834C435.012 115.421 434.85 115.096 434.588 114.858C434.327 114.62 433.991 114.493 433.579 114.475ZM441.346 112.951L441.136 114.057C441.943 113.186 442.875 112.762 443.932 112.786C444.815 112.803 445.469 113.12 445.892 113.735C446.316 114.345 446.472 115.198 446.362 116.295L445.344 122.382H443.279L444.306 116.269C444.336 116.019 444.339 115.787 444.315 115.572C444.239 114.881 443.828 114.527 443.079 114.51C442.296 114.498 441.607 114.884 441.014 115.668L439.839 122.382H437.776L439.403 112.96L441.346 112.951ZM447.973 117.662C448.089 116.693 448.35 115.822 448.756 115.05C449.163 114.278 449.666 113.703 450.263 113.326C450.86 112.942 451.526 112.76 452.258 112.777C453.215 112.8 453.964 113.157 454.505 113.848L455.41 109.006H457.483L455.157 122.382H453.311L453.451 121.407C452.718 122.202 451.859 122.588 450.872 122.565C449.995 122.553 449.294 122.217 448.765 121.555C448.243 120.887 447.961 120.002 447.921 118.899C447.903 118.539 447.912 118.188 447.948 117.845L447.973 117.662ZM449.976 118.472C449.935 119.192 450.046 119.764 450.306 120.188C450.574 120.612 450.969 120.829 451.491 120.841C452.286 120.864 452.974 120.478 453.555 119.683L454.261 115.633C453.987 114.908 453.46 114.533 452.675 114.51C451.886 114.487 451.25 114.835 450.768 115.555C450.287 116.275 450.022 117.247 449.976 118.472ZM462.15 119.029C462.22 117.973 462.829 117.038 463.979 116.225L464.972 115.572C464.617 114.922 464.382 114.394 464.266 113.988C464.15 113.575 464.104 113.186 464.126 112.821C464.196 111.834 464.562 111.033 465.225 110.417C465.886 109.802 466.715 109.506 467.714 109.529C468.255 109.546 468.742 109.674 469.178 109.912C469.613 110.15 469.946 110.481 470.18 110.905C470.411 111.323 470.512 111.784 470.484 112.289C470.455 112.812 470.287 113.302 469.979 113.761C469.677 114.214 469.184 114.678 468.499 115.154L467.445 115.851L469.309 118.672C469.79 117.953 470.092 117.175 470.214 116.339L471.981 116.33C471.843 117.909 471.308 119.201 470.379 120.205L471.782 122.382H469.535L469.003 121.555C467.981 122.24 466.894 122.571 465.737 122.548C464.652 122.536 463.767 122.208 463.081 121.564C462.396 120.919 462.086 120.075 462.15 119.029ZM465.877 120.858C466.272 120.864 466.644 120.791 466.992 120.64C467.339 120.49 467.677 120.312 468.002 120.109L465.886 116.896L465.59 117.088C464.794 117.645 464.348 118.269 464.248 118.96C464.178 119.517 464.296 119.97 464.597 120.318C464.899 120.667 465.326 120.847 465.877 120.858ZM466.026 112.76C465.968 113.16 466.078 113.628 466.356 114.162L466.556 114.527L467.418 113.988C468.167 113.511 468.576 112.966 468.646 112.35C468.682 112.019 468.594 111.749 468.384 111.54C468.176 111.326 467.912 111.218 467.592 111.218C467.174 111.218 466.821 111.372 466.529 111.68C466.24 111.982 466.072 112.342 466.026 112.76ZM484.565 119.056C484.692 118.22 484.236 117.598 483.197 117.192L482.493 116.931C481.18 116.472 480.249 115.929 479.697 115.302C479.146 114.675 478.896 113.947 478.948 113.117C478.994 112.397 479.238 111.764 479.679 111.218C480.127 110.667 480.712 110.243 481.439 109.947C482.164 109.651 482.936 109.511 483.755 109.529C484.545 109.546 485.247 109.72 485.862 110.051C486.477 110.376 486.948 110.832 487.272 111.418C487.598 111.999 487.749 112.664 487.726 113.413L485.584 113.404C485.624 112.742 485.476 112.228 485.14 111.863C484.808 111.497 484.306 111.305 483.633 111.288C482.953 111.276 482.378 111.436 481.909 111.767C481.445 112.098 481.171 112.545 481.09 113.108C480.974 113.845 481.467 114.426 482.57 114.85L483.224 115.085C484.553 115.561 485.482 116.121 486.011 116.765C486.538 117.404 486.771 118.162 486.708 119.038C486.65 119.752 486.413 120.376 486.002 120.911C485.59 121.439 485.018 121.848 484.287 122.138C483.56 122.429 482.759 122.568 481.882 122.556C481.053 122.551 480.298 122.376 479.618 122.034C478.945 121.691 478.428 121.218 478.068 120.614C477.709 120.005 477.544 119.314 477.572 118.542L479.722 118.551C479.676 119.27 479.853 119.825 480.255 120.214C480.654 120.603 481.23 120.803 481.979 120.815C482.676 120.826 483.255 120.678 483.72 120.371C484.19 120.063 484.472 119.625 484.565 119.056ZM493.717 121.45C493.003 122.211 492.108 122.58 491.035 122.556C490.426 122.545 489.918 122.394 489.511 122.104C489.111 121.813 488.822 121.41 488.649 120.893C488.481 120.371 488.432 119.758 488.501 119.056L489.519 112.96H491.584L490.555 119.082C490.533 119.297 490.53 119.506 490.548 119.709C490.606 120.429 490.969 120.803 491.636 120.832C492.547 120.867 493.284 120.501 493.847 119.735L495.032 112.96H497.096L495.467 122.382H493.534L493.717 121.45ZM506.413 117.706C506.297 118.646 506.045 119.5 505.657 120.266C505.273 121.032 504.783 121.613 504.184 122.008C503.592 122.397 502.928 122.583 502.191 122.565C501.208 122.542 500.437 122.193 499.874 121.52L499.03 126.005H496.956L499.221 112.96L501.11 112.951L500.954 113.926C501.674 113.143 502.53 112.762 503.522 112.786C504.12 112.792 504.64 112.945 505.081 113.247C505.523 113.543 505.859 113.976 506.092 114.545C506.33 115.114 506.458 115.747 506.474 116.443C506.48 116.797 506.461 117.218 506.413 117.706ZM504.376 117.523L504.42 116.887C504.436 116.138 504.312 115.558 504.046 115.146C503.784 114.733 503.389 114.522 502.861 114.51C502.082 114.487 501.409 114.844 500.84 115.581L500.109 119.787C500.37 120.49 500.901 120.852 501.702 120.876C502.387 120.893 502.962 120.626 503.427 120.075C503.897 119.523 504.214 118.672 504.376 117.523ZM507.911 117.636C508.011 116.713 508.28 115.874 508.721 115.12C509.169 114.365 509.741 113.781 510.436 113.369C511.133 112.957 511.906 112.762 512.753 112.786C513.56 112.797 514.257 113.012 514.843 113.43C515.43 113.848 515.856 114.42 516.124 115.146C516.396 115.871 516.493 116.678 516.411 117.567C516.317 118.565 516.045 119.448 515.592 120.214C515.145 120.98 514.571 121.569 513.868 121.982C513.171 122.388 512.397 122.58 511.543 122.556C510.741 122.545 510.048 122.333 509.461 121.921C508.882 121.503 508.454 120.934 508.182 120.214C507.908 119.488 507.81 118.69 507.886 117.819L507.911 117.636ZM509.94 118.829C509.97 119.439 510.129 119.929 510.42 120.301C510.716 120.667 511.124 120.858 511.648 120.876C512.355 120.893 512.948 120.62 513.424 120.057C513.905 119.494 514.207 118.725 514.33 117.749L514.382 116.896C514.382 116.153 514.234 115.569 513.938 115.146C513.642 114.722 513.213 114.498 512.649 114.475C511.766 114.452 511.069 114.884 510.558 115.773C510.251 116.313 510.057 116.934 509.976 117.636C509.929 118.124 509.918 118.521 509.94 118.829ZM523.525 114.893C523.258 114.835 522.989 114.806 522.715 114.806C521.81 114.783 521.089 115.157 520.556 115.929L519.423 122.382H517.36L518.988 112.96L520.948 112.951L520.739 114.022C521.384 113.169 522.127 112.751 522.968 112.768C523.16 112.768 523.424 112.812 523.76 112.899L523.525 114.893ZM528.584 110.67L528.184 112.96H529.796L529.525 114.527H527.905L527.018 119.805C527 119.95 526.997 120.08 527.009 120.196C527.043 120.574 527.275 120.771 527.706 120.789C527.92 120.789 528.164 120.763 528.437 120.71L528.297 122.365C527.868 122.487 527.435 122.548 527 122.548C526.281 122.536 525.74 122.292 525.38 121.816C525.026 121.334 524.887 120.699 524.962 119.909L525.842 114.527H524.335L524.613 112.96H526.111L526.513 110.67H528.584ZM534.08 122.556C533.261 122.539 532.549 122.333 531.946 121.938C531.349 121.543 530.904 121.003 530.614 120.318C530.329 119.633 530.222 118.87 530.292 118.028L530.317 117.671C530.423 116.713 530.701 115.854 531.154 115.093C531.612 114.327 532.181 113.747 532.86 113.352C533.539 112.957 534.276 112.768 535.073 112.786C536.252 112.809 537.133 113.247 537.72 114.101C538.311 114.954 538.536 116.066 538.39 117.436L538.268 118.341H532.338C532.286 119.091 532.437 119.694 532.79 120.153C533.145 120.612 533.633 120.847 534.254 120.858C535.141 120.887 535.96 120.501 536.709 119.7L537.754 120.797C537.36 121.36 536.84 121.799 536.195 122.112C535.552 122.42 534.846 122.568 534.08 122.556ZM534.959 114.475C533.868 114.44 533.049 115.212 532.503 116.792L536.414 116.8L536.448 116.617C536.489 116.35 536.492 116.089 536.457 115.834C536.393 115.421 536.231 115.096 535.969 114.858C535.708 114.62 535.372 114.493 534.959 114.475ZM554.056 111.48H550.225L548.334 122.382H546.193L548.091 111.48H544.286L544.6 109.703H554.37L554.056 111.48ZM557.139 122.556C556.32 122.539 555.609 122.333 555.006 121.938C554.407 121.543 553.963 121.003 553.673 120.318C553.389 119.633 553.282 118.87 553.35 118.028L553.377 117.671C553.481 116.713 553.76 115.854 554.212 115.093C554.672 114.327 555.241 113.747 555.92 113.352C556.599 112.957 557.336 112.768 558.131 112.786C559.31 112.809 560.193 113.247 560.778 114.101C561.371 114.954 561.594 116.066 561.45 117.436L561.328 118.341H555.397C555.345 119.091 555.496 119.694 555.85 120.153C556.204 120.612 556.691 120.847 557.313 120.858C558.201 120.887 559.02 120.501 559.769 119.7L560.814 120.797C560.419 121.36 559.9 121.799 559.255 122.112C558.61 122.42 557.906 122.568 557.139 122.556ZM558.018 114.475C556.928 114.44 556.109 115.212 555.563 116.792L559.473 116.8L559.508 116.617C559.548 116.35 559.551 116.089 559.517 115.834C559.453 115.421 559.289 115.096 559.029 114.858C558.768 114.62 558.43 114.493 558.018 114.475ZM559.246 109.006H561.728L558.977 111.645H557.183L559.246 109.006ZM566.352 120.876C566.845 120.887 567.28 120.745 567.658 120.449C568.041 120.147 568.285 119.755 568.391 119.273L570.341 119.265C570.277 119.886 570.051 120.452 569.661 120.963C569.278 121.474 568.784 121.871 568.181 122.156C567.578 122.44 566.948 122.574 566.291 122.556C565.484 122.545 564.797 122.336 564.228 121.929C563.659 121.523 563.244 120.963 562.982 120.249C562.721 119.529 562.633 118.728 562.721 117.845L562.748 117.54C562.846 116.629 563.11 115.805 563.54 115.067C563.975 114.324 564.535 113.752 565.221 113.352C565.906 112.951 566.665 112.762 567.502 112.786C568.523 112.809 569.339 113.149 569.948 113.805C570.559 114.455 570.864 115.302 570.864 116.347H568.93C568.93 115.808 568.796 115.366 568.529 115.024C568.269 114.681 567.888 114.498 567.389 114.475C566.582 114.452 565.946 114.794 565.481 115.503C565.017 116.211 564.767 117.209 564.733 118.498C564.691 120.06 565.232 120.852 566.352 120.876ZM574.93 112.951L574.72 114.057C575.527 113.186 576.459 112.762 577.516 112.786C578.399 112.803 579.051 113.12 579.476 113.735C579.9 114.345 580.056 115.198 579.946 116.295L578.926 122.382H576.863L577.89 116.269C577.92 116.019 577.923 115.787 577.899 115.572C577.824 114.881 577.412 114.527 576.663 114.51C575.88 114.498 575.191 114.884 574.598 115.668L573.423 122.382H571.36L572.987 112.96L574.93 112.951ZM583.299 122.382H581.234L582.872 112.96H584.935L583.299 122.382ZM583.168 110.548C583.168 110.228 583.272 109.956 583.482 109.729C583.69 109.503 583.972 109.384 584.326 109.372C584.663 109.361 584.941 109.465 585.162 109.686C585.388 109.9 585.501 110.165 585.501 110.478C585.501 110.809 585.391 111.082 585.171 111.297C584.956 111.511 584.679 111.625 584.343 111.636C584.012 111.648 583.734 111.549 583.507 111.34C583.281 111.125 583.168 110.861 583.168 110.548ZM589.725 120.876C590.218 120.887 590.654 120.745 591.031 120.449C591.415 120.147 591.659 119.755 591.763 119.273L593.714 119.265C593.65 119.886 593.423 120.452 593.035 120.963C592.651 121.474 592.158 121.871 591.553 122.156C590.95 122.44 590.32 122.574 589.664 122.556C588.857 122.545 588.169 122.336 587.6 121.929C587.031 121.523 586.616 120.963 586.354 120.249C586.094 119.529 586.007 118.728 586.094 117.845L586.12 117.54C586.219 116.629 586.482 115.805 586.912 115.067C587.347 114.324 587.907 113.752 588.593 113.352C589.278 112.951 590.039 112.762 590.874 112.786C591.896 112.809 592.712 113.149 593.322 113.805C593.931 114.455 594.236 115.302 594.236 116.347H592.302C592.302 115.808 592.17 115.366 591.902 115.024C591.641 114.681 591.26 114.498 590.761 114.475C589.954 114.452 589.319 114.794 588.854 115.503C588.39 116.211 588.141 117.209 588.105 118.498C588.065 120.06 588.604 120.852 589.725 120.876ZM595.255 117.636C595.353 116.713 595.624 115.874 596.065 115.12C596.511 114.365 597.083 113.781 597.78 113.369C598.477 112.957 599.249 112.762 600.097 112.786C600.903 112.797 601.6 113.012 602.187 113.43C602.772 113.848 603.199 114.42 603.466 115.146C603.74 115.871 603.835 116.678 603.753 117.567C603.661 118.565 603.388 119.448 602.936 120.214C602.489 120.98 601.913 121.569 601.212 121.982C600.515 122.388 599.739 122.58 598.886 122.556C598.085 122.545 597.391 122.333 596.805 121.921C596.224 121.503 595.798 120.934 595.524 120.214C595.252 119.488 595.153 118.69 595.228 117.819L595.255 117.636ZM597.284 118.829C597.312 119.439 597.473 119.929 597.762 120.301C598.058 120.667 598.468 120.858 598.99 120.876C599.699 120.893 600.29 120.62 600.767 120.057C601.249 119.494 601.551 118.725 601.673 117.749L601.725 116.896C601.725 116.153 601.577 115.569 601.28 115.146C600.984 114.722 600.555 114.498 599.992 114.475C599.109 114.452 598.413 114.884 597.902 115.773C597.594 116.313 597.4 116.934 597.318 117.636C597.272 118.124 597.26 118.521 597.284 118.829Z" fill="black" stroke="black"/>
</svg>
